<svg width="58" height="56" viewBox="0 0 58 56" fill="none" xmlns="http://www.w3.org/2000/svg">
<path d="M55.8845 41.9753C55.8796 41.9768 55.8796 41.9746 55.8763 41.9785C55.7669 42.1059 43.651 56.1865 29.0864 55.9981C15.7628 55.8258 9.20039 49.4 8.61909 48.8029C8.58741 48.7704 8.56151 48.7416 8.53129 48.7077C5.23632 45.0123 6.79708 42.104 11.7296 42.5313C17.5851 43.0386 25.2267 43.6078 32.3617 44.2246C43.1017 45.1532 52.415 42.9519 55.889 41.9742C55.9227 41.9647 55.918 41.9652 55.8845 41.9753Z" fill="#FBFBFB"/>
<path d="M2.66288 47.4569C2.66429 47.452 2.66616 47.4532 2.66472 47.4483C2.61725 47.2872 -2.60944 29.4619 5.46972 17.3421C12.8605 6.25503 21.8219 4.24278 22.6391 4.07967C22.6836 4.07078 22.7218 4.06469 22.7667 4.05777C27.6598 3.30248 29.2516 6.19399 26.2104 10.1009C22.6001 14.7388 17.9665 20.8418 13.5684 26.4939C6.94813 35.0016 3.73025 44.0143 2.6614 47.4613C2.65104 47.4947 2.65316 47.4905 2.66288 47.4569Z" fill="#FBFBFB"/>
<path d="M25.1993 0.0187586C25.2032 0.0220452 25.2013 0.0232702 25.2064 0.0239425C25.3729 0.046079 43.7832 2.51945 51.5705 14.8289C58.6942 26.0894 56.8885 35.0948 56.7052 35.9076C56.6952 35.9519 56.6852 35.9893 56.6733 36.0331C55.3736 40.8105 52.0847 41.089 49.7521 36.7219C46.983 31.5377 43.2915 24.8227 39.9163 18.5063C34.8358 8.9985 27.9104 2.39379 25.1959 0.0156188C25.1696 -0.00742959 25.1725 -0.00377764 25.1993 0.0187586Z" fill="#FBFBFB"/>
</svg>