<svg width="273" height="273" viewBox="0 0 273 273" fill="none" xmlns="http://www.w3.org/2000/svg">
<circle cx="136.5" cy="136.5" r="136.5" fill="#F56C6C"/>
<path d="M223.26 181.466C223.244 181.471 223.244 181.464 223.233 181.476C222.88 181.887 183.78 227.327 136.779 226.719C93.7816 226.163 72.6038 205.426 70.7279 203.5C70.6256 203.395 70.5421 203.302 70.4445 203.192C59.8112 191.267 64.848 181.881 80.766 183.26C99.6626 184.897 124.323 186.734 147.349 188.725C182.008 191.721 212.063 184.618 223.274 181.462C223.383 181.432 223.368 181.433 223.26 181.466Z" fill="#FBFBFB"/>
<path d="M51.5064 199.156C51.511 199.14 51.517 199.144 51.5124 199.128C51.3592 198.608 34.4919 141.084 60.5645 101.971C84.4154 66.1916 113.335 59.6978 115.972 59.1714C116.116 59.1428 116.239 59.1231 116.384 59.1008C132.175 56.6634 137.312 65.9946 127.497 78.6027C115.847 93.5699 100.893 113.265 86.7001 131.505C65.3355 158.961 54.951 188.046 51.5016 199.17C51.4682 199.278 51.4751 199.264 51.5064 199.156Z" fill="#FBFBFB"/>
<path d="M124.234 46.0663C124.247 46.0769 124.241 46.0809 124.257 46.0831C124.794 46.1545 184.207 54.1364 209.337 93.8606C232.327 130.2 226.499 159.261 225.908 161.885C225.876 162.028 225.844 162.148 225.805 162.29C221.611 177.707 210.997 178.606 203.469 164.512C194.533 147.782 182.62 126.112 171.728 105.728C155.332 75.0452 132.983 53.7309 124.223 46.0562C124.138 45.9818 124.148 45.9936 124.234 46.0663Z" fill="#FBFBFB"/>
</svg>
